<svg height="512" viewBox="0 0 64 64" width="512" xmlns="http://www.w3.org/2000/svg"><path d="m54 1h-44a1 1 0 0 0 -1 1v60a1 1 0 0 0 1 1h44a1 1 0 0 0 1-1v-60a1 1 0 0 0 -1-1zm-30 8h16a3 3 0 0 0 3-3h7v52h-36v-52h7a3 3 0 0 0 3 3zm17-6v3a1 1 0 0 1 -1 1h-16a1 1 0 0 1 -1-1v-3zm12 58h-42v-58h10v1h-8a1 1 0 0 0 -1 1v54a1 1 0 0 0 1 1h38a1 1 0 0 0 1-1v-54a1 1 0 0 0 -1-1h-8v-1h10z"/><path d="m16 12v42a1 1 0 0 0 1 1h30a1 1 0 0 0 1-1v-42a1 1 0 0 0 -1-1h-30a1 1 0 0 0 -1 1zm10 41v-4h12v4zm20 0h-6v-5a1 1 0 0 0 -1-1h-14a1 1 0 0 0 -1 1v5h-6v-19h7.08a6.991 6.991 0 0 0 13.84 0h7.08zm-9.1-19a5 5 0 0 1 -9.8 0zm-9.8-2a5 5 0 0 1 9.8 0zm10.9-19v4h-12v-4zm-20 0h6v5a1 1 0 0 0 1 1h14a1 1 0 0 0 1-1v-5h6v19h-7.08a6.991 6.991 0 0 0 -13.84 0h-7.08z"/><path d="m25 6h5a1 1 0 0 0 0-2h-5a1 1 0 0 0 0 2z"/><path d="m33 6h2a1 1 0 0 0 0-2h-2a1 1 0 0 0 0 2z"/></svg>