<svg height="512" viewBox="0 0 64 64" width="512" xmlns="http://www.w3.org/2000/svg"><path d="m32 46a10 10 0 1 0 -10-10 10.016 10.016 0 0 0 10 10zm0-2a7.928 7.928 0 0 1 -4.31-1.27l-.008-.006c.007-.007.018-.009.025-.017l1.707-1.707h5.172l1.707 1.707c.007.008.018.01.025.017l-.008.006a7.928 7.928 0 0 1 -4.31 1.27zm0-10.83 2.9 2.24-.72 3.59h-4.36l-.72-3.59zm5.84 8.27v.01l-.017.017a.958.958 0 0 0 -.116-.174l-1.618-1.618.8-4 2.91-1.456a8.026 8.026 0 0 1 .201 1.781 7.928 7.928 0 0 1 -2.16 5.44zm1.26-9.11-2.993 1.5-3.107-2.41v-3.36a8.013 8.013 0 0 1 6.1 4.27zm-8.1-4.27v3.36l-3.108 2.408-2.993-1.5a8.013 8.013 0 0 1 6.101-4.268zm-6.8 6.16 2.91 1.456.8 4-1.618 1.618a.958.958 0 0 0 -.116.174l-.017-.017v-.01a7.928 7.928 0 0 1 -2.159-5.441 8.026 8.026 0 0 1 .2-1.78z"/><path d="m59 12h-4v-3a1 1 0 0 0 -1-1h-4a1 1 0 0 0 -1 1v3h-14v-3a1 1 0 0 0 -1-1h-4a1 1 0 0 0 -1 1v3h-14v-3a1 1 0 0 0 -1-1h-4a1 1 0 0 0 -1 1v3h-4a4 4 0 0 0 -4 4v32a4 4 0 0 0 4 4h54a4 4 0 0 0 4-4v-32a4 4 0 0 0 -4-4zm-8-2h2v6h-2zm-20 0h2v6h-2zm-20 0h2v6h-2zm-8 6a2.006 2.006 0 0 1 2-2h4v3a1 1 0 0 0 1 1h4a1 1 0 0 0 1-1v-3h14v3a1 1 0 0 0 1 1h4a1 1 0 0 0 1-1v-3h14v3a1 1 0 0 0 1 1h4a1 1 0 0 0 1-1v-3h4a2.006 2.006 0 0 1 2 2v4h-58zm58 32a2.006 2.006 0 0 1 -2 2h-54a2.006 2.006 0 0 1 -2-2v-26h58z"/><path d="m7 29h12a1 1 0 0 0 0-2h-12a1 1 0 0 0 0 2z"/><path d="m7 32h1a1 1 0 0 0 0-2h-1a1 1 0 0 0 0 2z"/><path d="m54 48h5a1 1 0 0 0 0-2h-5a1 1 0 0 0 0 2z"/><path d="m57 45h2a1 1 0 0 0 0-2h-2a1 1 0 0 0 0 2z"/></svg>