<?xml version="1.0"?>
<svg xmlns="http://www.w3.org/2000/svg" viewBox="0 0 64 64" width="512" height="512"><g id="Conner"><path d="M58,44H20V20H42a1,1,0,0,0,.658-1.753L35.519,12l7.139-6.247A1,1,0,0,0,42,4H20V2a1,1,0,0,0-2,0V44a.974.974,0,0,0,.126.46L1.293,61.293a1,1,0,1,0,1.414,1.414L9.415,56A15.961,15.961,0,0,0,36.949,46H58a1,1,0,0,0,0-2ZM39.339,6l-6,5.247a1,1,0,0,0,0,1.506l6,5.247H20V6ZM21,59a13.97,13.97,0,0,1-10.172-4.414L19.414,46H34.949A14.007,14.007,0,0,1,21,59Z"/><path d="M62,44H61a1,1,0,0,0,0,2h1a1,1,0,0,0,0-2Z"/></g></svg>
