<svg height="512" viewBox="0 0 64 64" width="512" xmlns="http://www.w3.org/2000/svg"><path d="m63 32a31 31 0 1 0 -58.616 14.057c.012.018.017.04.029.057a31.206 31.206 0 0 0 13.6 13.539 1.089 1.089 0 0 0 .14.072 30.905 30.905 0 0 0 27.577.057h.007a.992.992 0 0 0 .788-.408 31.209 31.209 0 0 0 12.91-12.97.986.986 0 0 0 .55-1.04.25.25 0 0 0 -.009-.025 30.806 30.806 0 0 0 3.024-13.339zm-4.911 12.653-10.216 1.618a.922.922 0 0 0 -.159-.139l-6.433-3.676 4.584-14.105 4.815-4.815 9.887 4.739a.976.976 0 0 0 .191.043 28.772 28.772 0 0 1 -2.669 16.335zm-33.4-2.594-4.516-13.9 11.827-8.592 11.824 8.591-4.516 13.9zm-5.719-15.5-4.789-4.79-1.471-11.027a.978.978 0 0 0 -.1-.286 29.04 29.04 0 0 1 9-5.524l9.39 5.634v7.255zm32.279-16.224a.979.979 0 0 0 -.157.407l-1.474 11.027-4.706 4.707-11.912-8.655v-7.255l9.39-5.634a29.045 29.045 0 0 1 8.859 5.403zm9.113 15.623-8.591-4.119a.971.971 0 0 0 -.1-.306l1.277-9.559a28.952 28.952 0 0 1 7.414 13.984zm-20.472-21.858-7.89 4.734-7.89-4.734a28.846 28.846 0 0 1 15.78 0zm-29.009 8.056 1.253 9.377a.971.971 0 0 0 -.1.306l-8.372 4.012a28.958 28.958 0 0 1 7.219-13.695zm-7.633 16.112 9.873-4.732 5.11 5.109 4.522 13.916-6.253 3.571a.968.968 0 0 0 -.16.139l-10.448-1.655a28.793 28.793 0 0 1 -2.644-16.348zm3.844 18.563 8.7 1.377 1.378 8.7a29.217 29.217 0 0 1 -10.078-10.077zm12.292 11.277-1.644-10.379 6.423-3.67h15.871.016l6.427 3.673-1.625 10.255a28.94 28.94 0 0 1 -25.468.121zm27.686-1.34 1.356-8.56 8.46-1.339a29.222 29.222 0 0 1 -9.816 9.899z"/></svg>