<svg height="512" viewBox="0 0 64 64" width="512" xmlns="http://www.w3.org/2000/svg"><path d="m28 24a1 1 0 0 0 -1 1v10a1 1 0 0 0 2 0v-10a1 1 0 0 0 -1-1z"/><path d="m12 7h16a1 1 0 0 0 0-2h-16a1 1 0 0 0 0 2z"/><path d="m12 10h16a1 1 0 0 0 0-2h-16a1 1 0 0 0 0 2z"/><path d="m12 13h16a1 1 0 0 0 0-2h-16a1 1 0 0 0 0 2z"/><path d="m12 50h16a1 1 0 0 0 0-2h-16a1 1 0 0 0 0 2z"/><path d="m12 53h16a1 1 0 0 0 0-2h-16a1 1 0 0 0 0 2z"/><path d="m12 56h16a1 1 0 0 0 0-2h-16a1 1 0 0 0 0 2z"/><path d="m56 1h-48a1 1 0 0 0 -1 1v60a1 1 0 0 0 1 1h3a1 1 0 0 0 1-1v-2h16v2a1 1 0 0 0 1 1h6a1 1 0 0 0 1-1v-2h16v2a1 1 0 0 0 1 1h3a1 1 0 0 0 1-1v-60a1 1 0 0 0 -1-1zm-1 57h-22v-55h22zm-46-55h22v55h-22zm1 58h-1v-1h1zm20-1h1v1h-1zm4 1h-1v-1h1zm21 0h-1v-1h1z"/><path d="m52 24a1 1 0 0 0 -1 1v10a1 1 0 0 0 2 0v-10a1 1 0 0 0 -1-1z"/><path d="m36 7h16a1 1 0 0 0 0-2h-16a1 1 0 0 0 0 2z"/><path d="m36 10h16a1 1 0 0 0 0-2h-16a1 1 0 0 0 0 2z"/><path d="m36 13h16a1 1 0 0 0 0-2h-16a1 1 0 0 0 0 2z"/><path d="m36 50h16a1 1 0 0 0 0-2h-16a1 1 0 0 0 0 2z"/><path d="m36 53h16a1 1 0 0 0 0-2h-16a1 1 0 0 0 0 2z"/><path d="m36 56h16a1 1 0 0 0 0-2h-16a1 1 0 0 0 0 2z"/><path d="m28 20a1 1 0 0 0 -1 1v1a1 1 0 0 0 2 0v-1a1 1 0 0 0 -1-1z"/></svg>