<?xml version="1.0"?>
<svg xmlns="http://www.w3.org/2000/svg" viewBox="0 0 64 64" width="512" height="512"><g id="Medal"><path d="M32,4A15,15,0,1,0,47,19,15.017,15.017,0,0,0,32,4Zm0,28A13,13,0,1,1,45,19,13.015,13.015,0,0,1,32,32Z"/><path d="M50,19A18,18,0,1,0,23.078,34.612,1,1,0,0,0,23,35V62a1,1,0,0,0,1.707.707L32,55.414l7.293,7.293A1,1,0,0,0,41,62V35a1,1,0,0,0-.078-.388A18,18,0,0,0,50,19ZM39,36V59.586l-6.293-6.293a1,1,0,0,0-1.414,0L25,59.586V36h1.137a17.687,17.687,0,0,0,11.726,0Zm-7-1A16,16,0,1,1,48,19,16.019,16.019,0,0,1,32,35Z"/><path d="M32,9A10,10,0,1,0,42,19,10.011,10.011,0,0,0,32,9Zm7.1,6.331-2.987,1.494L33,14.419v-3.35A8.011,8.011,0,0,1,39.1,15.331ZM29.82,22,29.1,18.412,32,16.174l2.9,2.238L34.18,22ZM31,11.069v3.35l-3.114,2.406L24.9,15.331A8.011,8.011,0,0,1,31,11.069ZM24,19a7.966,7.966,0,0,1,.206-1.779l2.909,1.455.8,4-1.622,1.622a.949.949,0,0,0-.116.175A7.961,7.961,0,0,1,24,19Zm3.682,6.724c.007-.007.018-.009.025-.017L29.414,24h5.172l1.707,1.707c.007.008.018.01.025.017a7.944,7.944,0,0,1-8.636,0Zm10.141-1.256a.949.949,0,0,0-.116-.175l-1.622-1.622.8-4,2.909-1.455a7.917,7.917,0,0,1-1.971,7.247Z"/><path d="M31,38H27a1,1,0,0,0,0,2h4a1,1,0,0,0,0-2Z"/><path d="M34,40h1a1,1,0,0,0,0-2H34a1,1,0,0,0,0,2Z"/></g></svg>
