<?xml version="1.0"?>
<svg xmlns="http://www.w3.org/2000/svg" viewBox="0 0 64 64" width="512" height="512"><g id="Practice-2" data-name="Practice"><path d="M53.108,16.634l1.659-1.659.708.707a1,1,0,0,0,1.414,0l2.122-2.121a1,1,0,0,0,0-1.415L53.354,6.49a1,1,0,0,0-1.415,0L49.818,8.611a1,1,0,0,0,0,1.414l.708.707-1.815,1.815A27.86,27.86,0,0,0,35.332,7.205a4,4,0,1,0-6.664,0,28.033,28.033,0,1,0,24.44,9.429Zm-.462-8.023,4.244,4.243-.708.707-.707-.707h0L51.939,9.318Zm-.707,3.535,1.414,1.415-1.414,1.414-1.414-1.414ZM30,5a2,2,0,1,1,2,2A2,2,0,0,1,30,5Zm2,56A26,26,0,1,1,58,35,26.029,26.029,0,0,1,32,61Z"/><path d="M32,12A23,23,0,1,0,55,35,23.026,23.026,0,0,0,32,12Zm0,44A21,21,0,1,1,53,35,21.024,21.024,0,0,1,32,56Z"/><path d="M32,19a1,1,0,0,0,1-1V16a1,1,0,0,0-2,0v2A1,1,0,0,0,32,19Z"/><path d="M32,51a1,1,0,0,0-1,1v2a1,1,0,0,0,2,0V52A1,1,0,0,0,32,51Z"/><path d="M51,34H49a1,1,0,0,0,0,2h2a1,1,0,0,0,0-2Z"/><path d="M15,34H13a1,1,0,0,0,0,2h2a1,1,0,0,0,0-2Z"/><path d="M32.973,31.134A1.026,1.026,0,0,0,33,31V22a1,1,0,0,0-2,0v9a1.026,1.026,0,0,0,.027.134,3.982,3.982,0,0,0,0,7.732A1.026,1.026,0,0,0,31,39v3a1,1,0,0,0,2,0V39a1.026,1.026,0,0,0-.027-.134,3.982,3.982,0,0,0,0-7.732ZM32,37a2,2,0,1,1,2-2A2,2,0,0,1,32,37Z"/></g></svg>
