<?xml version="1.0"?>
<svg xmlns="http://www.w3.org/2000/svg" viewBox="0 0 64 64" width="512" height="512"><g id="Referee"><path d="M62.935,27.644,53.948,4.077A4.987,4.987,0,0,0,49.333,1H41a1,1,0,0,0-1,1c0,2.71-3.663,5-8,5s-8-2.29-8-5a1,1,0,0,0-1-1H14.667A5,5,0,0,0,10.04,4.105L1.065,27.644a1,1,0,0,0,.672,1.321L12,31.764V62a1,1,0,0,0,1,1H51a1,1,0,0,0,1-1V31.764l10.263-2.8a1,1,0,0,0,.672-1.321Zm-3.82-4.4L57,23.946V17.693Zm-54.23,0L7,17.692v6.254Zm8.378,6.794L3.327,27.326l.844-2.215,8.513,2.838a1,1,0,0,0,.632-1.9L9,24.612V13a1,1,0,0,0-.073-.362L11.9,4.846A2.994,2.994,0,0,1,14.667,3H19V61H14V31A1,1,0,0,0,13.263,30.035ZM21,61V3h1.1c.649,3.162,4.328,5.646,8.905,5.964,0,.013-.007.023-.007.036V61ZM32.993,8.964C37.569,8.646,41.249,6.162,41.9,3H43V19H37a1,1,0,0,0-1,1V30a1,1,0,0,0,.485.857l.884.531A8.7,8.7,0,0,0,43,32.606V61H33V9C33,8.987,32.993,8.977,32.993,8.964ZM38.4,29.673l-.4-.239V21h8v8.434l-.4.239A6.993,6.993,0,0,1,38.4,29.673Zm12.339.362A1,1,0,0,0,50,31V61H45V32.135a8.964,8.964,0,0,0,1.631-.747l.884-.531A1,1,0,0,0,48,30V20a1,1,0,0,0-1-1H45V3h4.333a2.983,2.983,0,0,1,2.758,1.818l2.982,7.821A.985.985,0,0,0,55,13V24.612l-4.316,1.439a1,1,0,0,0,.632,1.9l8.513-2.838.844,2.215Z"/></g></svg>
