<?xml version="1.0"?>
<svg xmlns="http://www.w3.org/2000/svg" viewBox="0 0 64 64" width="512" height="512"><g id="Score_board" data-name="Score board"><path d="M62,17H53V15h4a1,1,0,0,0,1-1V11a1,1,0,0,0-1-1H47a1,1,0,0,0-1,1v3a1,1,0,0,0,1,1h4v2H33V15h4a1,1,0,0,0,1-1V11a1,1,0,0,0-1-1H27a1,1,0,0,0-1,1v3a1,1,0,0,0,1,1h4v2H13V15h4a1,1,0,0,0,1-1V11a1,1,0,0,0-1-1H7a1,1,0,0,0-1,1v3a1,1,0,0,0,1,1h4v2H2a1,1,0,0,0-1,1V46a1,1,0,0,0,1,1H9v6H2a1,1,0,0,0,0,2H58a1,1,0,0,0,0-2H55V47h7a1,1,0,0,0,1-1V18A1,1,0,0,0,62,17ZM48,13V12h8v1ZM28,13V12h8v1ZM8,13V12h8v1Zm3,40V47h2v6Zm38-6v6H15V47Zm4,6H51V47h2Zm8-8H3V19H61Z"/><path d="M62,53H61a1,1,0,0,0,0,2h1a1,1,0,0,0,0-2Z"/><path d="M6,42H16a1,1,0,0,0,1-1V29a1,1,0,0,0-1-1H6a1,1,0,0,0-1,1V41A1,1,0,0,0,6,42ZM7,30h8V40H7Z"/><path d="M13,31H9a1,1,0,0,0-1,1v6a1,1,0,0,0,1,1h4a1,1,0,0,0,1-1V32A1,1,0,0,0,13,31Zm-1,6H10V33h2Z"/><path d="M29,28H19a1,1,0,0,0-1,1V41a1,1,0,0,0,1,1H29a1,1,0,0,0,1-1V29A1,1,0,0,0,29,28ZM28,40H20V30h8Z"/><path d="M22,39h4a1,1,0,0,0,1-1V32a1,1,0,0,0-1-1H22a1,1,0,0,0-1,1v6A1,1,0,0,0,22,39Zm1-6h2v4H23Z"/><path d="M35,42H45a1,1,0,0,0,1-1V29a1,1,0,0,0-1-1H35a1,1,0,0,0-1,1V41A1,1,0,0,0,35,42Zm1-12h8V40H36Z"/><path d="M42,31H38a1,1,0,0,0-1,1v6a1,1,0,0,0,1,1h4a1,1,0,0,0,1-1V32A1,1,0,0,0,42,31Zm-1,6H39V33h2Z"/><path d="M58,28H48a1,1,0,0,0-1,1V41a1,1,0,0,0,1,1H58a1,1,0,0,0,1-1V29A1,1,0,0,0,58,28ZM57,40H49V30h8Z"/><path d="M52.447,33.9,53,33.618V38a1,1,0,0,0,2,0V32a1,1,0,0,0-1.447-.895l-2,1a1,1,0,0,0,.894,1.79Z"/><path d="M6,24H29a1,1,0,0,0,0-2H6a1,1,0,0,0,0,2Z"/><path d="M6,27h6a1,1,0,0,0,0-2H6a1,1,0,0,0,0,2Z"/><path d="M15,25a1,1,0,0,0,0,2h1a1,1,0,0,0,0-2Z"/><path d="M35,24H58a1,1,0,0,0,0-2H35a1,1,0,0,0,0,2Z"/><path d="M35,27h6a1,1,0,0,0,0-2H35a1,1,0,0,0,0,2Z"/><path d="M44,25a1,1,0,0,0,0,2h1a1,1,0,0,0,0-2Z"/></g></svg>
