<svg height="512" viewBox="0 0 64 64" width="512" xmlns="http://www.w3.org/2000/svg"><path d="m28 16h-10a1 1 0 0 0 -1 1 2 2 0 0 1 -4 0 1 1 0 0 0 -1-1h-10a1 1 0 0 0 -1 1v6a1 1 0 0 0 1 1h4v11a1 1 0 0 0 1 1h16a1 1 0 0 0 1-1v-11h4a1 1 0 0 0 1-1v-6a1 1 0 0 0 -1-1zm-1 6h-4a1 1 0 0 0 -1 1v11h-14v-11a1 1 0 0 0 -1-1h-4v-4h8.127a4 4 0 0 0 7.746 0h8.127z"/><path d="m23 37h-16a1 1 0 0 0 -1 1v12a1 1 0 0 0 1 1h16a1 1 0 0 0 1-1v-12a1 1 0 0 0 -1-1zm-1 12h-6v-4a1 1 0 0 0 -2 0v4h-6v-10h14z"/><path d="m16 24h-6a1 1 0 0 0 0 2h6a1 1 0 0 0 0-2z"/><path d="m18 25a1 1 0 0 0 1 1h1a1 1 0 0 0 0-2h-1a1 1 0 0 0 -1 1z"/><path d="m62 16h-10a1 1 0 0 0 -1 1 2 2 0 0 1 -4 0 1 1 0 0 0 -1-1h-10a1 1 0 0 0 -1 1v6a1 1 0 0 0 1 1h4v11a1 1 0 0 0 1 1h16a1 1 0 0 0 1-1v-11h4a1 1 0 0 0 1-1v-6a1 1 0 0 0 -1-1zm-1 6h-4a1 1 0 0 0 -1 1v11h-14v-11a1 1 0 0 0 -1-1h-4v-4h8.127a4 4 0 0 0 7.746 0h8.127z"/><path d="m57 37h-16a1 1 0 0 0 -1 1v12a1 1 0 0 0 1 1h16a1 1 0 0 0 1-1v-12a1 1 0 0 0 -1-1zm-1 12h-6v-4a1 1 0 0 0 -2 0v4h-6v-10h14z"/><path d="m50 24h-6a1 1 0 0 0 0 2h6a1 1 0 0 0 0-2z"/><path d="m52 25a1 1 0 0 0 1 1h1a1 1 0 0 0 0-2h-1a1 1 0 0 0 -1 1z"/><path d="m10 48h2a1 1 0 0 0 0-2h-2a1 1 0 0 0 0 2z"/><path d="m44 48h2a1 1 0 0 0 0-2h-2a1 1 0 0 0 0 2z"/></svg>