<svg height="512" viewBox="0 0 64 64" width="512" xmlns="http://www.w3.org/2000/svg"><path d="m18 52h28a1 1 0 0 0 1-1v-40a1 1 0 0 0 -1-1h-28a1 1 0 0 0 -1 1v40a1 1 0 0 0 1 1zm8-2v-3h12v3zm14 0v-4a1 1 0 0 0 -1-1h-14a1 1 0 0 0 -1 1v4h-5v-18h6.08a6.991 6.991 0 0 0 13.84 0h6.08v18zm-3.1-18a5 5 0 0 1 -9.8 0zm-9.8-2a5 5 0 0 1 9.8 0zm10.9-18v3h-12v-3zm-14 0v4a1 1 0 0 0 1 1h14a1 1 0 0 0 1-1v-4h5v18h-6.08a6.991 6.991 0 0 0 -13.84 0h-6.08v-18z"/><path d="m47 1h-30a5.006 5.006 0 0 0 -5 5v52a5.006 5.006 0 0 0 5 5h30a5.006 5.006 0 0 0 5-5v-52a5.006 5.006 0 0 0 -5-5zm-30 2h30a3 3 0 0 1 3 3v1h-36v-1a3 3 0 0 1 3-3zm33 50h-36v-44h36zm0 5a3 3 0 0 1 -3 3h-30a3 3 0 0 1 -3-3v-3h36z"/><path d="m28 6h8a1 1 0 0 0 0-2h-8a1 1 0 0 0 0 2z"/><path d="m39 6h1a1 1 0 0 0 0-2h-1a1 1 0 0 0 0 2z"/><path d="m35 58a3 3 0 1 0 -3 3 3 3 0 0 0 3-3zm-3 1a1 1 0 1 1 1-1 1 1 0 0 1 -1 1z"/></svg>