<svg height="512" viewBox="0 0 64 64" width="512" xmlns="http://www.w3.org/2000/svg"><path d="m62.923 16.618a1 1 0 0 0 -.923-.618h-60a1 1 0 0 0 -.923.618 1.01 1.01 0 0 0 -.077.382v31a1 1 0 0 0 1.447.9l4-2c.023-.012.04-.03.061-.043a.969.969 0 0 0 .492.143h50a.969.969 0 0 0 .492-.148c.021.013.038.031.061.043l4 2a1 1 0 0 0 1.447-.895v-31a1.01 1.01 0 0 0 -.077-.382zm-5.337 3.382h-51.172l-2-2h55.172zm-41.586 2v3h-3v-3zm5 0v3h-3v-3zm5 0v3h-3v-3zm5 0v3h-3v-3zm5 0v3h-3v-3zm5 0v3h-3v-3zm5 0v3h-3v-3zm5 0v3h-3v-3zm6 0v3h-4v-3zm0 8h-4v-3h4zm0 5h-4v-3h4zm-11-5h-3v-3h3zm2-3h3v3h-3zm-7 3h-3v-3h3zm-13 2h3v3h-3zm-2 3h-3v-3h3zm7-3h3v3h-3zm5 0h3v3h-3zm-2-2h-3v-3h3zm-5 0h-3v-3h3zm-5 0h-3v-3h3zm-5 0h-3v-3h3zm-5 0h-3v-3h3zm-5 0h-4v-3h4zm-4 2h4v3h-4zm6 0h3v3h-3zm5 0h3v3h-3zm3 5v3h-3v-3zm2 0h3v3h-3zm5 0h3v3h-3zm5 0h3v3h-3zm5 0h3v3h-3zm5 0h3v3h-3zm0-2v-3h3v3zm5-3h3v3h-3zm-37-7h-4v-3h4zm-4 12h4v3h-4zm6 0h3v3h-3zm3 5v3h-3v-3zm2 0h3v3h-3zm5 0h3v3h-3zm5 0h3v3h-3zm5 0h3v3h-3zm5 0h3v3h-3zm5 0h3v3h-3zm5 0h3v3h-3zm0-2v-3h3v3zm5-3h4v3h-4zm-50 9.382v-26.968l2 2v23.968zm4-4.382h4v3h-4zm46 3v-3h4v3zm6 .382v-23.968l2-2v26.968z"/></svg>