<?xml version="1.0"?>
<svg xmlns="http://www.w3.org/2000/svg" viewBox="0 0 64 64" width="512" height="512"><g id="Stadium_light" data-name="Stadium light"><path d="M56,61H46.781L44.97,53.758A1,1,0,0,0,44,53H35V29H49a5.006,5.006,0,0,0,5-5V6a5.006,5.006,0,0,0-5-5H15a5.006,5.006,0,0,0-5,5V24a5.006,5.006,0,0,0,5,5H29V53H20a1,1,0,0,0-.97.758L17.219,61H4a1,1,0,0,0,0,2H56a1,1,0,0,0,0-2ZM48.9,20.02a5,5,0,0,0-9.8,0A.826.826,0,0,0,39,20H37a.826.826,0,0,0-.1.02,5,5,0,0,0-9.8,0A.826.826,0,0,0,27,20H25a.826.826,0,0,0-.1.02A5,5,0,0,0,15.1,20H12V10h3.1a5,5,0,0,0,9.8-.02A.826.826,0,0,0,25,10h2a.826.826,0,0,0,.1-.02,5,5,0,0,0,9.8,0A.826.826,0,0,0,37,10h2a.826.826,0,0,0,.1-.02,5,5,0,0,0,9.8,0A.826.826,0,0,0,49,10h3V20H49A.826.826,0,0,0,48.9,20.02ZM47,21a3,3,0,1,1-3-3A3,3,0,0,1,47,21ZM35,21a3,3,0,1,1-3-3A3,3,0,0,1,35,21ZM23,21a3,3,0,1,1-3-3A3,3,0,0,1,23,21ZM17,9a3,3,0,1,1,3,3A3,3,0,0,1,17,9ZM29,9a3,3,0,1,1,3,3A3,3,0,0,1,29,9ZM41,9a3,3,0,1,1,3,3A3,3,0,0,1,41,9ZM12,6a3,3,0,0,1,3-3H49a3,3,0,0,1,3,3V8H49a.826.826,0,0,0-.1.02,5,5,0,0,0-9.8,0A.826.826,0,0,0,39,8H37a.826.826,0,0,0-.1.02,5,5,0,0,0-9.8,0A.826.826,0,0,0,27,8H25a.826.826,0,0,0-.1.02A5,5,0,0,0,15.1,8H12Zm0,18V22h3.1a5,5,0,0,0,9.8-.02A.826.826,0,0,0,25,22h2a.826.826,0,0,0,.1-.02,5,5,0,0,0,9.8,0A.826.826,0,0,0,37,22h2a.826.826,0,0,0,.1-.02,5,5,0,0,0,9.8,0A.826.826,0,0,0,49,22h3v2a3,3,0,0,1-3,3H15A3,3,0,0,1,12,24Zm19,5h2V53H31ZM19.281,61l1.5-6H43.219l1.5,6Z"/><path d="M60,61H59a1,1,0,0,0,0,2h1a1,1,0,0,0,0-2Z"/></g></svg>
