<svg height="512" viewBox="0 0 64 64" width="512" xmlns="http://www.w3.org/2000/svg"><path d="m62 55h-1a1 1 0 0 0 0 2h1a1 1 0 0 0 0-2z"/><path d="m58 15h-5a1 1 0 0 0 -2 0v8h-18v-2h5a1 1 0 0 0 1-1v-4a1 1 0 0 0 -1-1h-5a1 1 0 0 0 -2 0v8h-18v-2h5a1 1 0 0 0 1-1v-4a1 1 0 0 0 -1-1h-5a1 1 0 0 0 -2 0v8h-2a1 1 0 0 0 -1 1v31h-6a1 1 0 0 0 0 2h56a1 1 0 0 0 0-2h-2v-31a1 1 0 0 0 -1-1h-2v-2h5a1 1 0 0 0 1-1v-4a1 1 0 0 0 -1-1zm-21 2v2h-4v-2zm-20 0v2h-4v-2zm-2 38v-10h6v10zm14 0v-10h6v10zm14 0v-10h6v10zm11-30v30h-3v-11a1 1 0 0 0 -1-1h-8a1 1 0 0 0 -1 1v11h-4v-11a1 1 0 0 0 -1-1h-8a1 1 0 0 0 -1 1v11h-4v-11a1 1 0 0 0 -1-1h-8a1 1 0 0 0 -1 1v11h-3v-30zm3-6h-4v-2h4z"/><path d="m14 33h4a1 1 0 0 0 1-1v-4a1 1 0 0 0 -1-1h-4a1 1 0 0 0 -1 1v4a1 1 0 0 0 1 1zm1-4h2v2h-2z"/><path d="m14 41h4a1 1 0 0 0 1-1v-4a1 1 0 0 0 -1-1h-4a1 1 0 0 0 -1 1v4a1 1 0 0 0 1 1zm1-4h2v2h-2z"/><path d="m22 33h4a1 1 0 0 0 1-1v-4a1 1 0 0 0 -1-1h-4a1 1 0 0 0 -1 1v4a1 1 0 0 0 1 1zm1-4h2v2h-2z"/><path d="m22 41h4a1 1 0 0 0 1-1v-4a1 1 0 0 0 -1-1h-4a1 1 0 0 0 -1 1v4a1 1 0 0 0 1 1zm1-4h2v2h-2z"/><path d="m30 33h4a1 1 0 0 0 1-1v-4a1 1 0 0 0 -1-1h-4a1 1 0 0 0 -1 1v4a1 1 0 0 0 1 1zm1-4h2v2h-2z"/><path d="m30 41h4a1 1 0 0 0 1-1v-4a1 1 0 0 0 -1-1h-4a1 1 0 0 0 -1 1v4a1 1 0 0 0 1 1zm1-4h2v2h-2z"/><path d="m38 33h4a1 1 0 0 0 1-1v-4a1 1 0 0 0 -1-1h-4a1 1 0 0 0 -1 1v4a1 1 0 0 0 1 1zm1-4h2v2h-2z"/><path d="m38 41h4a1 1 0 0 0 1-1v-4a1 1 0 0 0 -1-1h-4a1 1 0 0 0 -1 1v4a1 1 0 0 0 1 1zm1-4h2v2h-2z"/><path d="m46 33h4a1 1 0 0 0 1-1v-4a1 1 0 0 0 -1-1h-4a1 1 0 0 0 -1 1v4a1 1 0 0 0 1 1zm1-4h2v2h-2z"/><path d="m46 41h4a1 1 0 0 0 1-1v-4a1 1 0 0 0 -1-1h-4a1 1 0 0 0 -1 1v4a1 1 0 0 0 1 1zm1-4h2v2h-2z"/></svg>