<?xml version="1.0"?>
<svg xmlns="http://www.w3.org/2000/svg" viewBox="0 0 64 64" width="512" height="512"><g id="Tactic-2" data-name="Tactic"><path d="M28.515,36.143A1,1,0,0,0,27.2,36.4l-5.735,7.647a3.018,3.018,0,1,0,1.771.972l5.023-6.7,4.226,2.536a1,1,0,0,0,1.252-.181l11-12a1,1,0,0,0,.022-1.327L40.174,22H41a1,1,0,0,0,0-2H38a.116.116,0,0,0-.018,0,.959.959,0,0,0-.329.058.171.171,0,0,0-.023.013.851.851,0,0,0-.078.043.963.963,0,0,0-.217.147.882.882,0,0,0-.079.083,1.026,1.026,0,0,0-.137.2.888.888,0,0,0-.048.1A1,1,0,0,0,37,21v3a1,1,0,0,0,2,0v-.3l3.664,4.275-9.85,10.745ZM21,48a1,1,0,1,1,1-1A1,1,0,0,1,21,48Z"/><path d="M25.793,19.207a1,1,0,0,0,1.414,0L28,18.414l.793.793a1,1,0,0,0,1.414-1.414L29.414,17l.793-.793a1,1,0,0,0-1.414-1.414L28,15.586l-.793-.793a1,1,0,0,0-1.414,1.414l.793.793-.793.793A1,1,0,0,0,25.793,19.207Z"/><path d="M20.793,30.207l.793.793-.793.793a1,1,0,1,0,1.414,1.414L23,32.414l.793.793a1,1,0,0,0,1.414-1.414L24.414,31l.793-.793a1,1,0,0,0-1.414-1.414L23,29.586l-.793-.793a1,1,0,0,0-1.414,1.414Z"/><path d="M43.793,37.793,43,38.586l-.793-.793a1,1,0,0,0-1.414,1.414l.793.793-.793.793a1,1,0,1,0,1.414,1.414L43,41.414l.793.793a1,1,0,0,0,1.414-1.414L44.414,40l.793-.793a1,1,0,0,0-1.414-1.414Z"/><path d="M54,1H10A1,1,0,0,0,9,2V62a1,1,0,0,0,1,1H54a1,1,0,0,0,1-1V2A1,1,0,0,0,54,1ZM24,9H40a3,3,0,0,0,3-3h7V58H14V6h7A3,3,0,0,0,24,9ZM41,3V6a1,1,0,0,1-1,1H24a1,1,0,0,1-1-1V3ZM53,61H11V3H21V4H13a1,1,0,0,0-1,1V59a1,1,0,0,0,1,1H51a1,1,0,0,0,1-1V5a1,1,0,0,0-1-1H43V3H53Z"/><path d="M25,6h5a1,1,0,0,0,0-2H25a1,1,0,0,0,0,2Z"/><path d="M33,6h2a1,1,0,0,0,0-2H33a1,1,0,0,0,0,2Z"/></g></svg>
