<?xml version="1.0"?>
<svg xmlns="http://www.w3.org/2000/svg" viewBox="0 0 64 64" width="512" height="512"><g id="Tactic-3" data-name="Tactic"><path d="M10,53a5,5,0,1,0,5,5A5.006,5.006,0,0,0,10,53Zm0,8a3,3,0,1,1,3-3A3,3,0,0,1,10,61Z"/><path d="M44,11a5,5,0,1,0-5-5A5.006,5.006,0,0,0,44,11Zm0-8a3,3,0,1,1-3,3A3,3,0,0,1,44,3Z"/><path d="M49.657,21a1,1,0,0,0,.778-1.629l-5.658-7a1.034,1.034,0,0,0-1.554,0l-5.658,7A1,1,0,0,0,38.343,21h4.665c0,.016-.008.029-.007.045.9,19.963-7.674,31.732-26.225,35.98A1,1,0,0,0,17,59a1.027,1.027,0,0,0,.225-.025C36.581,54.542,45.926,41.765,45,21ZM44,14.591,47.563,19H40.437Z"/><path d="M6.293,41.293a1,1,0,0,0,0,1.414L8.586,45,6.293,47.293a1,1,0,1,0,1.414,1.414L10,46.414l2.293,2.293a1,1,0,0,0,1.414-1.414L11.414,45l2.293-2.293a1,1,0,0,0-1.414-1.414L10,43.586,7.707,41.293A1,1,0,0,0,6.293,41.293Z"/><path d="M26.293,17.707a1,1,0,0,0,1.414,0L30,15.414l2.293,2.293a1,1,0,0,0,1.414-1.414L31.414,14l2.293-2.293a1,1,0,0,0-1.414-1.414L30,12.586l-2.293-2.293a1,1,0,0,0-1.414,1.414L28.586,14l-2.293,2.293A1,1,0,0,0,26.293,17.707Z"/><path d="M13,39a1,1,0,0,0,1-1V37a1,1,0,0,0-2,0v1A1,1,0,0,0,13,39Z"/><path d="M9,39a1,1,0,0,0,1-1V27a1,1,0,0,0-2,0V38A1,1,0,0,0,9,39Z"/><path d="M6,38a1,1,0,0,0,1-1V36a1,1,0,0,0-2,0v1A1,1,0,0,0,6,38Z"/><path d="M57.707,41.293a1,1,0,0,0-1.414,0L54,43.586l-2.293-2.293a1,1,0,0,0-1.414,1.414L52.586,45l-2.293,2.293a1,1,0,1,0,1.414,1.414L54,46.414l2.293,2.293a1,1,0,0,0,1.414-1.414L55.414,45l2.293-2.293A1,1,0,0,0,57.707,41.293Z"/><path d="M57,36a1,1,0,0,0-1,1v1a1,1,0,0,0,2,0V37A1,1,0,0,0,57,36Z"/><path d="M53,39a1,1,0,0,0,1-1V27a1,1,0,0,0-2,0V38A1,1,0,0,0,53,39Z"/><path d="M51,37V36a1,1,0,0,0-2,0v1a1,1,0,0,0,2,0Z"/></g></svg>
