<svg height="512" viewBox="0 0 64 64" width="512" xmlns="http://www.w3.org/2000/svg"><path d="m54 13h-28a9.014 9.014 0 0 0 -9 9h-7a9.014 9.014 0 0 0 -9 9v8a9.008 9.008 0 0 0 8 8.94v5.06a.987.987 0 0 0 .62.92.838.838 0 0 0 .38.08 1.007 1.007 0 0 0 .71-.29l5.7-5.71h21.59a9.014 9.014 0 0 0 9-9h.59l5.7 5.71a1.007 1.007 0 0 0 .71.29.838.838 0 0 0 .38-.08.987.987 0 0 0 .62-.92v-5.06a9.008 9.008 0 0 0 8-8.94v-8a9.014 9.014 0 0 0 -9-9zm-16 33h-22a1.033 1.033 0 0 0 -.71.29l-4.29 4.3v-3.59a1 1 0 0 0 -1-1 7.008 7.008 0 0 1 -7-7v-8a7.008 7.008 0 0 1 7-7h28a7.008 7.008 0 0 1 7 7v8a7.008 7.008 0 0 1 -7 7zm23-16a7.008 7.008 0 0 1 -7 7 1 1 0 0 0 -1 1v3.59l-4.29-4.3a1.033 1.033 0 0 0 -.71-.29h-1v-6a9.014 9.014 0 0 0 -9-9h-19a7.008 7.008 0 0 1 7-7h28a7.008 7.008 0 0 1 7 7z"/><path d="m24 31a4 4 0 1 0 4 4 4 4 0 0 0 -4-4zm0 6a2 2 0 1 1 2-2 2 2 0 0 1 -2 2z"/><path d="m14 39a4 4 0 1 0 -4-4 4 4 0 0 0 4 4zm0-6a2 2 0 1 1 -2 2 2 2 0 0 1 2-2z"/><path d="m34 31a4 4 0 1 0 4 4 4 4 0 0 0 -4-4zm0 6a2 2 0 1 1 2-2 2 2 0 0 1 -2 2z"/><path d="m16 42h-8a1 1 0 0 0 0 2h8a1 1 0 0 0 0-2z"/><path d="m20 42h-1a1 1 0 0 0 0 2h1a1 1 0 0 0 0-2z"/></svg>