<?xml version="1.0"?>
<svg xmlns="http://www.w3.org/2000/svg" viewBox="0 0 64 64" width="512" height="512"><g id="First_aid_kit" data-name="First aid kit"><path d="M58,18H55V16a1,1,0,0,0-1-1H47a1,1,0,0,0-1,1v2H42V14a3,3,0,0,0-3-3H25a3,3,0,0,0-3,3v4H18V16a1,1,0,0,0-1-1H10a1,1,0,0,0-1,1v2H6a5.006,5.006,0,0,0-5,5V49a5.006,5.006,0,0,0,5,5H58a5.006,5.006,0,0,0,5-5V23A5.006,5.006,0,0,0,58,18ZM48,17h5v1H48Zm0,3V52H16V20ZM24,14a1,1,0,0,1,1-1H39a1,1,0,0,1,1,1v4H24ZM11,17h5v1H11ZM3,49V23a3,3,0,0,1,3-3h5V52H6A3,3,0,0,1,3,49Zm10,3V20h1V52Zm37,0V20h1V52Zm11-3a3,3,0,0,1-3,3H53V20h5a3,3,0,0,1,3,3Z"/><path d="M32,49A13,13,0,1,0,19,36,13.015,13.015,0,0,0,32,49Zm0-24A11,11,0,1,1,21,36,11.013,11.013,0,0,1,32,25Z"/><path d="M25,39h4v4a1,1,0,0,0,1,1h4a1,1,0,0,0,1-1V39h4a1,1,0,0,0,1-1V34a1,1,0,0,0-1-1H35V29a1,1,0,0,0-1-1H30a1,1,0,0,0-1,1v4H25a1,1,0,0,0-1,1v4A1,1,0,0,0,25,39Zm1-4h4a1,1,0,0,0,1-1V30h2v4a1,1,0,0,0,1,1h4v2H34a1,1,0,0,0-1,1v4H31V38a1,1,0,0,0-1-1H26Z"/></g></svg>
