<?xml version="1.0"?>
<svg xmlns="http://www.w3.org/2000/svg" viewBox="0 0 64 64" width="512" height="512"><g id="Goal"><path d="M32,40A10,10,0,1,0,42,50,10.011,10.011,0,0,0,32,40Zm7.1,6.331-2.987,1.494L33,45.419v-3.35A8.011,8.011,0,0,1,39.1,46.331ZM29.819,53,29.1,49.412,32,47.174l2.9,2.238L34.181,53ZM31,42.069v3.35l-3.114,2.406L24.9,46.331A8.011,8.011,0,0,1,31,42.069ZM24,50a7.966,7.966,0,0,1,.206-1.779l2.909,1.455.8,3.995-1.622,1.622a.949.949,0,0,0-.116.175A7.961,7.961,0,0,1,24,50Zm3.682,6.724c.007-.007.018-.009.025-.017L29.414,55h5.172l1.707,1.707c.007.008.018.01.025.017a7.944,7.944,0,0,1-8.636,0Zm10.141-1.256a.949.949,0,0,0-.116-.175l-1.622-1.622.8-3.995,2.909-1.455a7.917,7.917,0,0,1-1.971,7.247Z"/><path d="M62.923,8.618A1,1,0,0,0,62,8H2A1,1,0,0,0,1,9V40a1,1,0,0,0,1.447.9l4-2c.023-.012.04-.03.061-.043A.969.969,0,0,0,7,39H57a.966.966,0,0,0,.492-.148c.021.013.038.031.061.043l4,2A1,1,0,0,0,63,40V9A.991.991,0,0,0,62.923,8.618ZM57.586,12H6.414l-2-2H59.586ZM16,14v3H13V14Zm5,0v3H18V14Zm5,0v3H23V14Zm5,0v3H28V14Zm5,0v3H33V14Zm5,0v3H38V14Zm5,0v3H43V14Zm5,0v3H48V14Zm6,0v3H53V14Zm0,8H53V19h4Zm0,5H53V24h4ZM46,22H43V19h3Zm2-3h3v3H48Zm-7,3H38V19h3ZM28,24h3v3H28Zm-2,3H23V24h3Zm7-3h3v3H33Zm5,0h3v3H38Zm-2-2H33V19h3Zm-5,0H28V19h3Zm-5,0H23V19h3Zm-5,0H18V19h3Zm-5,0H13V19h3Zm-5,0H7V19h4ZM7,24h4v3H7Zm6,0h3v3H13Zm5,0h3v3H18Zm3,5v3H18V29Zm2,0h3v3H23Zm5,0h3v3H28Zm5,0h3v3H33Zm5,0h3v3H38Zm5,0h3v3H43Zm0-2V24h3v3Zm5-3h3v3H48ZM11,17H7V14h4ZM7,29h4v3H7Zm6,0h3v3H13Zm3,5v3H13V34Zm2,0h3v3H18Zm5,0h3v3H23Zm5,0h3v3H28Zm5,0h3v3H33Zm5,0h3v3H38Zm5,0h3v3H43Zm5,0h3v3H48Zm0-2V29h3v3Zm5-3h4v3H53ZM3,38.382V11.414l2,2V37.382ZM7,34h4v3H7Zm46,3V34h4v3Zm6,.382V13.414l2-2V38.382Z"/></g></svg>
