<?xml version="1.0"?>
<svg xmlns="http://www.w3.org/2000/svg" viewBox="0 0 64 64" width="512" height="512"><g id="Label"><path d="M17.514,50.521l14,7.777a1,1,0,0,0,.972,0l14-7.777A1,1,0,0,0,47,49.646V9a1,1,0,0,0-1-1H18a1,1,0,0,0-1,1V49.646A1,1,0,0,0,17.514,50.521ZM19,10H45V49.058L32,56.28,19,49.058Z"/><path d="M57,1H7A1,1,0,0,0,6,2V5A1,1,0,0,0,7,6h6V52a1,1,0,0,0,.514.874l18,10a1,1,0,0,0,.972,0l18-10A1,1,0,0,0,51,52V6h6a1,1,0,0,0,1-1V2A1,1,0,0,0,57,1ZM49,51.412,32,60.856,15,51.412V6H49ZM56,4H8V3H56Z"/><path d="M42,32A10,10,0,1,0,32,42,10.011,10.011,0,0,0,42,32ZM27.682,38.724c.007-.007.018-.009.025-.017L29.414,37h5.172l1.707,1.707c.007.008.018.01.025.017a7.944,7.944,0,0,1-8.636,0ZM32,29.174l2.9,2.238L34.18,35H29.82L29.1,31.412Zm5.823,8.294a.949.949,0,0,0-.116-.175l-1.622-1.622.8-4,2.909-1.455a7.917,7.917,0,0,1-1.971,7.247ZM39.1,28.331l-2.987,1.494L33,27.419v-3.35A8.011,8.011,0,0,1,39.1,28.331ZM31,24.069v3.35l-3.114,2.406L24.9,28.331A8.011,8.011,0,0,1,31,24.069ZM24,32a7.966,7.966,0,0,1,.206-1.779l2.909,1.455.8,4-1.622,1.622a.949.949,0,0,0-.116.175A7.961,7.961,0,0,1,24,32Z"/><path d="M29,14a1,1,0,0,0,0-2H22a1,1,0,0,0,0,2Z"/><path d="M32,14h1a1,1,0,0,0,0-2H32a1,1,0,0,0,0,2Z"/></g></svg>
