<?xml version="1.0"?>
<svg xmlns="http://www.w3.org/2000/svg" viewBox="0 0 64 64" width="512" height="512"><g id="Manager"><path d="M58,1H6A5.006,5.006,0,0,0,1,6V58a5.006,5.006,0,0,0,5,5H58a5.006,5.006,0,0,0,5-5V6A5.006,5.006,0,0,0,58,1ZM30.921,61l-.9-10.985L30.587,49h2.826l.566,1.015L33.079,61Zm4.164,0L36,49.875a1,1,0,0,0-.123-.568l-1-1.794A1,1,0,0,0,34,47H30a1,1,0,0,0-.874.513l-1,1.794a1,1,0,0,0-.123.568L28.915,61H13V56A18.991,18.991,0,0,1,28.465,37.333a1,1,0,0,0,.152-1.924,10,10,0,1,1,6.766,0,1,1,0,0,0,.152,1.924A19.007,19.007,0,0,1,51,56v5ZM61,58a3,3,0,0,1-3,3H53V56A21.02,21.02,0,0,0,38.559,36.049a12,12,0,1,0-13.12,0A21,21,0,0,0,11,56v5H6a3,3,0,0,1-3-3V6A3,3,0,0,1,6,3H58a3,3,0,0,1,3,3Z"/><path d="M16,5H6A1,1,0,0,0,6,7H16a1,1,0,0,0,0-2Z"/><path d="M21,5H19a1,1,0,0,0,0,2h2a1,1,0,0,0,0-2Z"/><path d="M34.97,38.757A1,1,0,0,0,34,38H30a1,1,0,0,0-.97.757l-1,4a1,1,0,0,0,.415,1.075l3,2a1,1,0,0,0,1.11,0l3-2a1,1,0,0,0,.415-1.075ZM32,43.8l-1.859-1.239L30.781,40h2.438l.64,2.559Z"/></g></svg>
