<svg height="512" viewBox="0 0 64 64" width="512" xmlns="http://www.w3.org/2000/svg"><path d="m62 43h-5v-3a1 1 0 0 0 -1-1h-7v-2h5a1 1 0 0 0 1-1v-5a1 1 0 0 0 -1-1h-5v-3a1 1 0 0 0 -1-1h-15v-2h9a1 1 0 0 0 1-1v-9a1 1 0 0 0 -1-1h-20a1 1 0 0 0 -1 1v9a1 1 0 0 0 1 1h9v2h-15a1 1 0 0 0 -1 1v3h-5a1 1 0 0 0 -1 1v5a1 1 0 0 0 1 1h5v2h-7a1 1 0 0 0 -1 1v3h-5a1 1 0 0 0 -1 1v5a1 1 0 0 0 1 1h12a1 1 0 0 0 1-1v-5a1 1 0 0 0 -1-1h-5v-2h14v2h-5a1 1 0 0 0 -1 1v5a1 1 0 0 0 1 1h12a1 1 0 0 0 1-1v-5a1 1 0 0 0 -1-1h-5v-3a1 1 0 0 0 -1-1h-7v-2h5a1 1 0 0 0 1-1v-5a1 1 0 0 0 -1-1h-5v-2h30v2h-5a1 1 0 0 0 -1 1v5a1 1 0 0 0 1 1h5v2h-7a1 1 0 0 0 -1 1v3h-5a1 1 0 0 0 -1 1v5a1 1 0 0 0 1 1h12a1 1 0 0 0 1-1v-5a1 1 0 0 0 -1-1h-5v-2h14v2h-5a1 1 0 0 0 -1 1v5a1 1 0 0 0 1 1h12a1 1 0 0 0 1-1v-5a1 1 0 0 0 -1-1zm-39-21v-7h18v7zm-10 23v3h-10v-3zm16 0v3h-10v-3zm-8-13v3h-10v-3zm22 0h10v3h-10zm2 13v3h-10v-3zm16 3h-10v-3h10z"/></svg>