<?xml version="1.0"?>
<svg xmlns="http://www.w3.org/2000/svg" viewBox="0 0 64 64" width="512" height="512"><g id="Medal-2" data-name="Medal"><path d="M32.641,34.561l8-6.666A1,1,0,0,0,41,27.126V6a1,1,0,0,0-1-1H24a1,1,0,0,0-1,1V27.126a1,1,0,0,0,.359.769l8,6.666a1,1,0,0,0,1.282,0ZM25,26.658V7H39V26.658l-7,5.833Z"/><path d="M45.262,47.691A1,1,0,0,0,44.311,47H35.633l-2.487-7.653,11.495-9.579A1,1,0,0,0,45,29V2a1,1,0,0,0-1-1H20a1,1,0,0,0-1,1V29a1,1,0,0,0,.359.768l11.495,9.579L28.367,47H19.689a1,1,0,0,0-.587,1.809l7.02,5.1L23.44,62.163a1,1,0,0,0,1.539,1.118L32,58.18l7.021,5.1a1,1,0,0,0,1.539-1.118L37.878,53.91l7.02-5.1A1,1,0,0,0,45.262,47.691ZM21,3H43V28.532L32,37.7,21,28.532ZM36.114,52.719a1,1,0,0,0-.363,1.118l1.955,6.017-5.118-3.719a1,1,0,0,0-1.176,0l-5.118,3.719,1.955-6.017a1,1,0,0,0-.363-1.118L22.768,49h6.326a1,1,0,0,0,.951-.691L32,42.292l1.955,6.017a1,1,0,0,0,.951.691h6.326Z"/><path d="M30,8H27a1,1,0,0,0,0,2h3a1,1,0,0,0,0-2Z"/><path d="M33,10h1a1,1,0,0,0,0-2H33a1,1,0,0,0,0,2Z"/></g></svg>
