<?xml version="1.0"?>
<svg xmlns="http://www.w3.org/2000/svg" viewBox="0 0 64 64" width="512" height="512"><g id="Practice"><path d="M62.935,27.644,53.949,4.077A4.988,4.988,0,0,0,49.333,1H41a1,1,0,0,0-1,1c0,2.71-3.664,5-8,5s-8-2.29-8-5a1,1,0,0,0-1-1H14.667A5,5,0,0,0,10.04,4.105L1.065,27.644a1,1,0,0,0,.672,1.321L12,31.764V62a1,1,0,0,0,1,1H51a1,1,0,0,0,1-1V31.764l10.263-2.8a1,1,0,0,0,.672-1.321ZM52.091,4.818l7.024,18.423-8.431,2.81c-.032.011-.053.035-.083.048L47,13.856V3h2.333A2.983,2.983,0,0,1,52.091,4.818ZM32,9a11.819,11.819,0,0,0,8-2.815v7.156a20.261,20.261,0,0,1-16,0V6.185A11.819,11.819,0,0,0,32,9ZM11.9,4.846A2.994,2.994,0,0,1,14.667,3H17V13.856L13.4,26.1c-.03-.013-.051-.037-.083-.048l-8.432-2.81Zm-8.57,22.48.844-2.215,8.513,2.838a.907.907,0,0,0,.163.026l-.53,1.8ZM50,61H14V31.144l4.959-16.862A1,1,0,0,0,19,14V3h3V14a1,1,0,0,0,.594.914,22.3,22.3,0,0,0,18.812,0A1,1,0,0,0,42,14V3h3V14a1,1,0,0,0,.041.282L50,31.144Zm1.683-31.223-.53-1.8a.907.907,0,0,0,.163-.026l8.513-2.838.844,2.215Z"/><path d="M23,57H17a1,1,0,0,0,0,2h6a1,1,0,0,0,0-2Z"/><path d="M27,57H26a1,1,0,0,0,0,2h1a1,1,0,0,0,0-2Z"/></g></svg>
