<?xml version="1.0"?>
<svg xmlns="http://www.w3.org/2000/svg" id="Soccer_field" data-name="Soccer field" viewBox="0 0 64 64" width="512" height="512"><path d="M62,13H2a1,1,0,0,0-1,1V50a1,1,0,0,0,1,1H62a1,1,0,0,0,1-1V14A1,1,0,0,0,62,13ZM53,34.819a2.969,2.969,0,0,1-1.123-.7,3.007,3.007,0,0,1,0-4.246,2.969,2.969,0,0,1,1.123-.7ZM55,25h6v1H57a1,1,0,0,0-1,1V37a1,1,0,0,0,1,1h4v1H55Zm6,11H58V28h3Zm0-19.184A3,3,0,0,1,59.184,15H61ZM31,37.91a5.993,5.993,0,0,1,0-11.82Zm2-11.82a5.993,5.993,0,0,1,0,11.82ZM4.816,15A3,3,0,0,1,3,16.816V15ZM11,29.181a2.969,2.969,0,0,1,1.123.7,3.007,3.007,0,0,1,0,4.246,2.969,2.969,0,0,1-1.123.7ZM9,39H3V38H7a1,1,0,0,0,1-1V27a1,1,0,0,0-1-1H3V25H9ZM3,28H6v8H3ZM3,47.184A3,3,0,0,1,4.816,49H3ZM6.9,49A5.016,5.016,0,0,0,3,45.1V41h7a1,1,0,0,0,1-1V36.9a4.957,4.957,0,0,0,2.537-1.362A5,5,0,0,0,11,27.1V24a1,1,0,0,0-1-1H3V18.9A5.016,5.016,0,0,0,6.9,15H31v9.069a7.993,7.993,0,0,0,0,15.862V49ZM33,39.931a7.993,7.993,0,0,0,0-15.862V15H57.1A5.016,5.016,0,0,0,61,18.9V23H54a1,1,0,0,0-1,1v3.1a4.957,4.957,0,0,0-2.537,1.362A5,5,0,0,0,53,36.9V40a1,1,0,0,0,1,1h7v4.1A5.016,5.016,0,0,0,57.1,49H33ZM59.184,49A3,3,0,0,1,61,47.184V49Z"/><path d="M51,45H44a1,1,0,0,0,0,2h7a1,1,0,0,0,0-2Z"/><path d="M55,45H54a1,1,0,0,0,0,2h1a1,1,0,0,0,0-2Z"/></svg>
