<?xml version="1.0"?>
<svg xmlns="http://www.w3.org/2000/svg" viewBox="0 0 64 64" width="512" height="512"><g id="Soccer_field-2" data-name="Soccer field"><path d="M50,1H14a1,1,0,0,0-1,1V62a1,1,0,0,0,1,1H50a1,1,0,0,0,1-1V2A1,1,0,0,0,50,1ZM45.1,61H41V54a1,1,0,0,0-1-1H36.9a4.957,4.957,0,0,0-1.362-2.537A5,5,0,0,0,27.1,53H24a1,1,0,0,0-1,1v7H18.9A5.016,5.016,0,0,0,15,57.1V33h9.069a7.993,7.993,0,0,0,15.862,0H49V57.1A5.016,5.016,0,0,0,45.1,61ZM34.819,53H29.181a2.969,2.969,0,0,1,.7-1.123,3.005,3.005,0,0,1,4.246,0A2.969,2.969,0,0,1,34.819,53ZM18.9,3H23v7a1,1,0,0,0,1,1h3.1a5,5,0,0,0,9.8,0H40a1,1,0,0,0,1-1V3h4.1A5.016,5.016,0,0,0,49,6.9V31H39.931a7.993,7.993,0,0,0-15.862,0H15V6.9A5.016,5.016,0,0,0,18.9,3Zm10.282,8h5.638a2.969,2.969,0,0,1-.7,1.123,3.005,3.005,0,0,1-4.246,0A2.969,2.969,0,0,1,29.181,11ZM26.09,31a5.993,5.993,0,0,1,11.82,0Zm11.82,2a5.993,5.993,0,0,1-11.82,0ZM49,4.816A3,3,0,0,1,47.184,3H49ZM36,3V6H28V3ZM26,3V7a1,1,0,0,0,1,1H37a1,1,0,0,0,1-1V3h1V9H25V3ZM16.816,3A3,3,0,0,1,15,4.816V3ZM15,59.184A3,3,0,0,1,16.816,61H15ZM28,61V58h8v3Zm10,0V57a1,1,0,0,0-1-1H27a1,1,0,0,0-1,1v4H25V55H39v6Zm9.184,0A3,3,0,0,1,49,59.184V61Z"/><path d="M41,29h2a1,1,0,0,0,0-2H41a1,1,0,0,0,0,2Z"/><path d="M46,29h1a1,1,0,0,0,0-2H46a1,1,0,0,0,0,2Z"/><path d="M10,16H5a1,1,0,0,0-1,1V30a1,1,0,0,0,1,1h5a1,1,0,0,0,1-1V17A1,1,0,0,0,10,16ZM9,29H6V18H9Z"/><path d="M10,33H5a1,1,0,0,0-1,1V47a1,1,0,0,0,1,1h5a1,1,0,0,0,1-1V34A1,1,0,0,0,10,33ZM9,46H6V35H9Z"/><path d="M59,16H54a1,1,0,0,0-1,1V30a1,1,0,0,0,1,1h5a1,1,0,0,0,1-1V17A1,1,0,0,0,59,16ZM58,29H55V18h3Z"/><path d="M59,33H54a1,1,0,0,0-1,1V47a1,1,0,0,0,1,1h5a1,1,0,0,0,1-1V34A1,1,0,0,0,59,33ZM58,46H55V35h3Z"/></g></svg>
