<svg height="512" viewBox="0 0 64 64" width="512" xmlns="http://www.w3.org/2000/svg"><path d="m6 22a1 1 0 0 0 1 1h16a1 1 0 0 0 1-1v-13h4a1 1 0 0 0 1-1v-6a1 1 0 0 0 -1-1h-10a1 1 0 0 0 -1 1 2 2 0 0 1 -4 0 1 1 0 0 0 -1-1h-10a1 1 0 0 0 -1 1v6a1 1 0 0 0 1 1h4zm-3-15v-4h8.126a4 4 0 0 0 7.748 0h8.126v4h-4a1 1 0 0 0 -1 1v13h-14v-13a1 1 0 0 0 -1-1z"/><path d="m10 11h6a1 1 0 0 0 0-2h-6a1 1 0 0 0 0 2z"/><path d="m19 11h1a1 1 0 0 0 0-2h-1a1 1 0 0 0 0 2z"/><path d="m62 41h-10a1 1 0 0 0 -1 1 2 2 0 0 1 -4 0 1 1 0 0 0 -1-1h-10a1 1 0 0 0 -1 1v6a1 1 0 0 0 1 1h4v13a1 1 0 0 0 1 1h16a1 1 0 0 0 1-1v-13h4a1 1 0 0 0 1-1v-6a1 1 0 0 0 -1-1zm-1 6h-4a1 1 0 0 0 -1 1v13h-14v-13a1 1 0 0 0 -1-1h-4v-4h8.126a4 4 0 0 0 7.748 0h8.126z"/><path d="m50 49h-6a1 1 0 0 0 0 2h6a1 1 0 0 0 0-2z"/><path d="m52 50a1 1 0 0 0 1 1h1a1 1 0 0 0 0-2h-1a1 1 0 0 0 -1 1z"/><path d="m33.919 8.076a24.022 24.022 0 0 1 21.281 30.087 1 1 0 0 0 .711 1.223.99.99 0 0 0 .256.034 1 1 0 0 0 .967-.744 26.019 26.019 0 0 0 -22.828-32.568l.4-.4a1 1 0 1 0 -1.414-1.414l-2 2v.007a1.011 1.011 0 0 0 -.17.228c-.011.02-.014.043-.023.063a.907.907 0 0 0 -.032.087.994.994 0 0 0 -.054.273c0 .023-.006.045 0 .068a.987.987 0 0 0 .064.33.792.792 0 0 0 .035.072.973.973 0 0 0 .065.134l2 3a1 1 0 1 0 1.664-1.11z"/><path d="m32.93 56.653a.9.9 0 0 0 -.047-.1.976.976 0 0 0 -.051-.109l-2-3a1 1 0 0 0 -1.664 1.11l.908 1.361a24.016 24.016 0 0 1 -21.413-29.541 1 1 0 1 0 -1.945-.467 26.017 26.017 0 0 0 23.461 32.022l-1.011 1.516a1 1 0 0 0 1.664 1.11l2-3a.976.976 0 0 0 .051-.109.9.9 0 0 0 .047-.1.987.987 0 0 0 0-.693z"/></svg>