<?xml version="1.0"?>
<svg xmlns="http://www.w3.org/2000/svg" viewBox="0 0 64 64" width="512" height="512"><g id="Substitute-2" data-name="Substitute"><path d="M29,22V16a1,1,0,0,0-1-1H18a1,1,0,0,0-1,1,2,2,0,0,1-4,0,1,1,0,0,0-1-1H2a1,1,0,0,0-1,1v6a1,1,0,0,0,1,1H6V34a1,1,0,0,0,1,1H23a1,1,0,0,0,1-1V23h4A1,1,0,0,0,29,22Zm-2-1H23a1,1,0,0,0-1,1V33H8V22a1,1,0,0,0-1-1H3V17h8.126a4,4,0,0,0,7.748,0H27Z"/><path d="M23,36H7a1,1,0,0,0-1,1V49a1,1,0,0,0,1,1H23a1,1,0,0,0,1-1V37A1,1,0,0,0,23,36ZM22,48H16V44a1,1,0,0,0-2,0v4H8V38H22Z"/><path d="M16,23H10a1,1,0,0,0,0,2h6a1,1,0,0,0,0-2Z"/><path d="M18,24a1,1,0,0,0,1,1h1a1,1,0,0,0,0-2H19A1,1,0,0,0,18,24Z"/><path d="M62,15H52a1,1,0,0,0-1,1,2,2,0,0,1-4,0,1,1,0,0,0-1-1H36a1,1,0,0,0-1,1v6a1,1,0,0,0,1,1h4V34a1,1,0,0,0,1,1H57a1,1,0,0,0,1-1V23h4a1,1,0,0,0,1-1V16A1,1,0,0,0,62,15Zm-1,6H57a1,1,0,0,0-1,1V33H42V22a1,1,0,0,0-1-1H37V17h8.126a4,4,0,0,0,7.748,0H61Z"/><path d="M57,36H41a1,1,0,0,0-1,1V49a1,1,0,0,0,1,1H57a1,1,0,0,0,1-1V37A1,1,0,0,0,57,36ZM56,48H50V44a1,1,0,0,0-2,0v4H42V38H56Z"/><path d="M50,23H44a1,1,0,0,0,0,2h6a1,1,0,0,0,0-2Z"/><path d="M52,24a1,1,0,0,0,1,1h1a1,1,0,0,0,0-2H53A1,1,0,0,0,52,24Z"/><path d="M10,47h2a1,1,0,0,0,0-2H10a1,1,0,0,0,0,2Z"/><path d="M44,47h2a1,1,0,0,0,0-2H44a1,1,0,0,0,0,2Z"/><path d="M32.707,24.293A1,1,0,0,0,31,25v2H28a1,1,0,0,0-1,1v4a1,1,0,0,0,1,1h3v2a1,1,0,0,0,1.707.707l5-5a1,1,0,0,0,0-1.414ZM33,32.586V32a1,1,0,0,0-1-1H29V29h3a1,1,0,0,0,1-1v-.586L35.586,30Z"/><path d="M37,40H34V38a1,1,0,0,0-1.707-.707l-5,5a1,1,0,0,0,0,1.414l5,5A1,1,0,0,0,34,48V46h3a1,1,0,0,0,1-1V41A1,1,0,0,0,37,40Zm-1,4H33a1,1,0,0,0-1,1v.586L29.414,43,32,40.414V41a1,1,0,0,0,1,1h3Z"/></g></svg>
