<svg height="512" viewBox="0 0 64 64" width="512" xmlns="http://www.w3.org/2000/svg"><path d="m47 1h-30a5.006 5.006 0 0 0 -5 5v52a5.006 5.006 0 0 0 5 5h30a5.006 5.006 0 0 0 5-5v-52a5.006 5.006 0 0 0 -5-5zm-30 2h30a3 3 0 0 1 3 3v1h-36v-1a3 3 0 0 1 3-3zm33 50h-36v-44h36zm0 5a3 3 0 0 1 -3 3h-30a3 3 0 0 1 -3-3v-3h36z"/><path d="m28 6h8a1 1 0 0 0 0-2h-8a1 1 0 0 0 0 2z"/><path d="m39 6h1a1 1 0 0 0 0-2h-1a1 1 0 0 0 0 2z"/><path d="m35 58a3 3 0 1 0 -3 3 3 3 0 0 0 3-3zm-3 1a1 1 0 1 1 1-1 1 1 0 0 1 -1 1z"/><path d="m21 49a2.986 2.986 0 0 0 2.236-4.981l5.023-6.7 4.226 2.536a1 1 0 0 0 1.252-.181l11-12a1 1 0 0 0 .022-1.327l-4.585-5.347h.826a1 1 0 0 0 0-2h-3c-.007 0-.012 0-.018 0a.987.987 0 0 0 -.329.058.253.253 0 0 0 -.022.013.813.813 0 0 0 -.082.045 1.016 1.016 0 0 0 -.214.144 1.072 1.072 0 0 0 -.08.085.969.969 0 0 0 -.135.2.828.828 0 0 0 -.049.1.985.985 0 0 0 -.071.355v3a1 1 0 0 0 2 0v-.3l3.664 4.275-9.85 10.745-4.3-2.58a1 1 0 0 0 -1.314.26l-5.735 7.647a3 3 0 1 0 -.465 5.953zm0-4a1 1 0 1 1 -1 1 1 1 0 0 1 1-1z"/><path d="m25.793 18.207a1 1 0 0 0 1.414 0l.793-.793.793.793a1 1 0 0 0 1.414-1.414l-.793-.793.793-.793a1 1 0 0 0 -1.414-1.414l-.793.793-.793-.793a1 1 0 0 0 -1.414 1.414l.793.793-.793.793a1 1 0 0 0 0 1.414z"/><path d="m20.793 32.207a1 1 0 0 0 1.414 0l.793-.793.793.793a1 1 0 0 0 1.414-1.414l-.793-.793.793-.793a1 1 0 0 0 -1.414-1.414l-.793.793-.793-.793a1 1 0 0 0 -1.414 1.414l.793.793-.793.793a1 1 0 0 0 0 1.414z"/><path d="m43.793 36.793-.793.793-.793-.793a1 1 0 0 0 -1.414 1.414l.793.793-.793.793a1 1 0 1 0 1.414 1.414l.793-.793.793.793a1 1 0 0 0 1.414-1.414l-.793-.793.793-.793a1 1 0 0 0 -1.414-1.414z"/></svg>