<?xml version="1.0"?>
<svg xmlns="http://www.w3.org/2000/svg" viewBox="0 0 64 64" width="512" height="512"><g id="Team_shirt-2" data-name="Team shirt"><path d="M62.935,27.644,53.948,4.077A4.987,4.987,0,0,0,49.333,1H41a1,1,0,0,0-1,1c0,1.4-.909,3-8,3s-8-1.6-8-3a1,1,0,0,0-1-1H14.667A5,5,0,0,0,10.04,4.105L1.065,27.644a1,1,0,0,0,.672,1.321L12,31.764V62a1,1,0,0,0,1,1H51a1,1,0,0,0,1-1V31.764l10.263-2.8a1,1,0,0,0,.672-1.321Zm-12.2,2.391A1,1,0,0,0,50,31V61H14V31a1,1,0,0,0-.737-.965L3.327,27.326l.844-2.215,8.513,2.838a1,1,0,0,0,.632-1.9l-8.431-2.81L11.9,4.846A2.994,2.994,0,0,1,14.667,3H22.1c.879,4,7.118,4,9.9,4s9.017,0,9.9-4h7.437a2.983,2.983,0,0,1,2.758,1.818l7.024,18.423-8.431,2.81a1,1,0,0,0,.632,1.9l8.513-2.838.844,2.215Z"/><path d="M47,57H41a1,1,0,0,0,0,2h6a1,1,0,0,0,0-2Z"/><path d="M38,57H37a1,1,0,0,0,0,2h1a1,1,0,0,0,0-2Z"/><path d="M41,50V17a1,1,0,0,0-1-1H24a1,1,0,0,0-1,1V35a1,1,0,0,0,1,1H39V49H25V45a1,1,0,0,0-2,0v5a1,1,0,0,0,1,1H40A1,1,0,0,0,41,50ZM25,18H39V34H25Z"/></g></svg>
