<?xml version="1.0"?>
<svg xmlns="http://www.w3.org/2000/svg" viewBox="0 0 64 64" width="512" height="512"><g id="Ticket"><path d="M62,18H48.937a1,1,0,0,0-.562.173L45.982,19.8l-2.574-1.645A1,1,0,0,0,42.87,18H2a1,1,0,0,0-1,1V45a1,1,0,0,0,1,1H43.1a1.008,1.008,0,0,0,.567-.176l2.329-1.6,2.255,1.6a1,1,0,0,0,.578.184H62a1,1,0,0,0,1-1V19A1,1,0,0,0,62,18ZM49.144,44l-2.566-1.816a1,1,0,0,0-1.145-.008L42.785,44H3V20H42.578l2.884,1.843a1,1,0,0,0,1.1-.016L49.246,20H55V44ZM61,44H57V20h4Z"/><path d="M46,30a1,1,0,0,0-1,1v2a1,1,0,0,0,2,0V31A1,1,0,0,0,46,30Z"/><path d="M46,24a1,1,0,0,0-1,1v2a1,1,0,0,0,2,0V25A1,1,0,0,0,46,24Z"/><path d="M46,36a1,1,0,0,0-1,1v2a1,1,0,0,0,2,0V37A1,1,0,0,0,46,36Z"/><path d="M24,22A10,10,0,1,0,34,32,10.011,10.011,0,0,0,24,22Zm7.1,6.331-2.987,1.494L25,27.419v-3.35A8.011,8.011,0,0,1,31.1,28.331ZM21.819,35,21.1,31.412,24,29.174l2.9,2.238L26.181,35ZM23,24.069v3.35l-3.114,2.406L16.9,28.331A8.011,8.011,0,0,1,23,24.069ZM16,32a7.966,7.966,0,0,1,.206-1.779l2.909,1.455.8,4-1.622,1.622a.949.949,0,0,0-.116.175A7.961,7.961,0,0,1,16,32Zm3.682,6.724c.007-.007.018-.009.025-.017L21.414,37h5.172l1.707,1.707c.007.008.018.01.025.017a7.944,7.944,0,0,1-8.636,0Zm10.141-1.256a.949.949,0,0,0-.116-.175l-1.622-1.622.8-4,2.909-1.455a7.917,7.917,0,0,1-1.971,7.247Z"/><path d="M9,22H5a1,1,0,0,0,0,2H9a1,1,0,0,0,0-2Z"/><path d="M6,25H5a1,1,0,0,0,0,2H6a1,1,0,0,0,0-2Z"/><path d="M41,40H37a1,1,0,0,0,0,2h4a1,1,0,0,0,0-2Z"/><path d="M41,37H40a1,1,0,0,0,0,2h1a1,1,0,0,0,0-2Z"/></g></svg>
