<?xml version="1.0"?>
<svg xmlns="http://www.w3.org/2000/svg" viewBox="0 0 64 64" width="512" height="512"><g id="Trainning"><path d="M63,15a13.991,13.991,0,0,0-27.84-2H6a5.006,5.006,0,0,0-5,5V58a5.006,5.006,0,0,0,5,5H46a5.006,5.006,0,0,0,5-5V28.84A14.009,14.009,0,0,0,63,15ZM9,61A16.993,16.993,0,0,1,22.837,44.4a1,1,0,0,0,.152-1.924,8.868,8.868,0,0,1-5.884-8.692A9.018,9.018,0,0,1,25.751,25.2a8.9,8.9,0,0,1,3.26,17.271,1,1,0,0,0,.151,1.924A17.006,17.006,0,0,1,43,61Zm40-3a3,3,0,0,1-3,3H45A19.008,19.008,0,0,0,32.128,43.114,10.9,10.9,0,0,0,33.6,26.287,10.787,10.787,0,0,0,25.7,23.2,11.044,11.044,0,0,0,15.107,33.712a10.868,10.868,0,0,0,4.756,9.4A19,19,0,0,0,7,61H6a3,3,0,0,1-3-3V18a3,3,0,0,1,3-3H35A14.015,14.015,0,0,0,49,29Zm0-31A12,12,0,1,1,61,15,12.013,12.013,0,0,1,49,27Z"/><path d="M49.707,6.293c-.009-.009-.021-.012-.03-.02a1,1,0,0,0-.294-.2h0c-.009,0-.018,0-.027-.006a.972.972,0,0,0-.313-.061.731.731,0,0,0-.105,0,.958.958,0,0,0-.244.047c-.035.012-.067.021-.1.036a.994.994,0,0,0-.3.2l-4,4a1,1,0,0,0,1.414,1.414L48,9.414V19a1,1,0,0,0,2,0V9.414l2.293,2.293a1,1,0,0,0,1.414-1.414Z"/><path d="M49,21a1,1,0,0,0-1,1v1a1,1,0,0,0,2,0V22A1,1,0,0,0,49,21Z"/></g></svg>
